<svg width="49" height="18" viewBox="0 0 49 18" fill="none" xmlns="http://www.w3.org/2000/svg">
<path opacity="0.75" fill-rule="evenodd" clip-rule="evenodd" d="M0.000964672 1.2642V2.52722H1.28708H2.5732V1.2642V0.00118403H1.28708H0.000964672V1.2642ZM5.14544 1.26357V2.52722H6.66876C8.32801 2.52722 8.75372 2.59369 9.55184 2.97709C10.3696 3.37005 11.1696 4.33618 11.4628 5.28479C11.5242 5.48308 11.5747 5.96548 11.5751 6.35685C11.5761 7.14553 11.43 7.65587 11.0157 8.31035L10.7774 8.68665L11.3058 9.20552C11.6909 9.58371 11.9119 9.88826 12.1211 10.3293C12.3909 10.8977 12.4085 10.9842 12.4141 11.7631C12.4201 12.6029 12.3797 12.7854 12.031 13.4923C11.6482 14.2682 10.7458 15.0066 9.81284 15.3074C9.32379 15.4651 9.13513 15.4732 5.93656 15.4732H2.57433L2.55367 10.283L2.53301 5.09273H1.28708H0.0411558L0.0205779 11.5464L0 18L7.51696 17.9799L15.0338 17.9597V9.0002V0.0406534L10.0897 0.0202872L5.14544 0V1.26357ZM17.6851 9.0002V15.4732H18.9712H20.2573V12.7893V10.1053L21.6037 10.1036C22.3442 10.1027 23.2598 10.0562 23.6383 10.0003C26.3123 9.60526 27.7441 6.95924 26.5755 4.57197C26.1285 3.65889 25.025 2.8294 23.9711 2.61421C23.7061 2.56006 22.4374 2.52722 20.6151 2.52722H17.6851V9.0002ZM30.4661 2.78377C30.4113 2.92484 30.2984 3.19094 30.2152 3.37495C30.132 3.55903 30.064 3.73664 30.0642 3.76964C30.0645 3.85837 28.6856 7.29378 28.5275 7.59793C28.4884 7.67332 28.4563 7.77144 28.4563 7.81588C28.4563 7.8604 28.3804 8.06509 28.2875 8.27088C28.0759 8.74009 28.0466 8.81177 27.7316 9.63171C27.5898 10.0007 27.4265 10.4093 27.3687 10.5395C27.311 10.6698 27.2032 10.9362 27.1291 11.1315C27.0551 11.3269 26.965 11.5578 26.929 11.6446C26.893 11.7315 26.6398 12.3709 26.3662 13.0655C26.0927 13.7602 25.7638 14.5686 25.6353 14.8621C25.5068 15.1555 25.4018 15.4131 25.4018 15.4344C25.4018 15.4557 26.0166 15.4732 26.7679 15.4732H28.134L28.2862 15.1377C28.37 14.9531 28.4998 14.6423 28.5746 14.447C28.6494 14.2516 28.7586 13.9852 28.8171 13.8549C28.8756 13.7247 29.0081 13.3961 29.1115 13.1247L29.2995 12.6314H31.8422C33.7815 12.6314 34.4033 12.6548 34.4623 12.7301C34.5049 12.7844 34.6942 13.2195 34.883 13.6971C35.0717 14.1746 35.2741 14.6725 35.3327 14.8034C35.3913 14.9343 35.4768 15.1385 35.5228 15.2573L35.6063 15.4732H37.015C38.3559 15.4732 38.4237 15.4658 38.4237 15.32C38.4237 15.2356 38.3876 15.1448 38.3433 15.1179C38.2991 15.0911 38.263 14.9896 38.263 14.8923C38.263 14.7949 38.2323 14.6816 38.1946 14.6404C38.1571 14.5992 37.9361 14.0858 37.7036 13.4997C37.471 12.9136 37.2335 12.3275 37.1758 12.1972C37.118 12.067 36.9734 11.7117 36.8543 11.4078C36.7353 11.1039 36.5849 10.7378 36.5201 10.5942C36.4553 10.4507 36.3113 10.0955 36.2 9.80482C36.0887 9.51425 35.9148 9.06335 35.8136 8.80285C35.5796 8.20086 34.8265 6.3518 34.6883 6.04C34.6306 5.90975 34.4667 5.50124 34.3242 5.1322C34.1817 4.76316 34.018 4.35465 33.9603 4.2244C33.9027 4.09416 33.7221 3.65905 33.559 3.25741L33.2624 2.52722H31.914H30.5658L30.4661 2.78377ZM36.3338 2.65321C36.3338 2.72244 36.4011 2.87345 36.4835 2.9887C36.6467 3.21699 37.8812 5.21359 38.2047 5.77239C38.315 5.96295 38.9158 6.94968 39.5398 7.96499C40.1638 8.9803 40.6752 9.83284 40.6762 9.85952C40.6772 9.8862 40.7487 9.9968 40.8352 10.1053C40.9838 10.292 40.9925 10.4437 40.9942 12.8899L40.996 15.4772L42.262 15.4554L43.528 15.4337L43.5492 12.7999C43.5692 10.3171 43.5795 10.1536 43.7301 9.94596C43.8179 9.82487 43.8897 9.70212 43.8897 9.67323C43.8897 9.64434 43.9982 9.46578 44.1309 9.27648C44.2635 9.08719 44.372 8.90957 44.372 8.88179C44.372 8.854 44.4805 8.67639 44.6132 8.48709C44.7458 8.2978 44.8543 8.12682 44.8543 8.10716C44.8543 8.08751 45.2522 7.42695 45.7385 6.63914C46.2248 5.85133 46.6227 5.18754 46.6227 5.16401C46.6227 5.14041 46.7313 4.96627 46.8639 4.77698C46.9965 4.58768 47.105 4.41007 47.105 4.38228C47.105 4.3545 47.2045 4.18273 47.3261 4.00054C47.4477 3.81834 47.592 3.59874 47.6469 3.51269C47.8038 3.2664 48.15 2.61603 48.15 2.56756C48.15 2.54348 47.4743 2.53338 46.6484 2.54522L45.1468 2.56669L44.9316 2.92192C44.8133 3.11729 44.5305 3.57284 44.3031 3.93415C44.0757 4.29553 43.8897 4.60378 43.8897 4.6191C43.8897 4.63441 43.7034 4.94267 43.4758 5.30405C43.248 5.66535 43.0206 6.0321 42.9703 6.11893C42.5085 6.91669 42.3367 7.191 42.2751 7.22834C42.1997 7.27412 42.1663 7.22344 41.1818 5.56636C40.8465 5.00195 40.2988 4.08729 39.9647 3.53369L39.3575 2.52722H37.8456C36.515 2.52722 36.3338 2.5423 36.3338 2.65321ZM5.18474 5.14554C5.16223 5.20332 5.15315 6.97345 5.16473 9.07914L5.18563 12.9077L7.07437 12.9289C9.09438 12.9516 9.26334 12.9276 9.6741 12.5596C10.0056 12.2626 10.1291 11.9817 10.1291 11.525C10.1291 11.078 10.0513 10.8849 9.73752 10.5528C9.39059 10.1856 9.08417 10.1053 8.02939 10.1053H7.07461V8.92126V7.73718L7.41624 7.73599C7.91549 7.73426 8.43629 7.55775 8.69665 7.30207C9.29437 6.71508 9.12332 5.60236 8.37954 5.23924C8.12866 5.11681 7.84508 5.08847 6.6526 5.0666C5.5201 5.04584 5.2173 5.06218 5.18474 5.14554ZM23.7647 5.20474C24.2239 5.47969 24.4372 5.84123 24.4372 6.34454C24.4372 6.85741 24.2438 7.22084 23.8404 7.46642C23.6223 7.59911 23.3967 7.61995 21.9253 7.64324L20.2573 7.66969V6.36143V5.05326L21.8851 5.05358C23.3458 5.05381 23.5387 5.06937 23.7647 5.20474ZM32.4622 7.67868C33.0451 9.14623 33.0575 9.1767 33.2309 9.56469C33.4809 10.1244 33.5288 10.1053 31.8726 10.1053C30.6688 10.1053 30.3855 10.0848 30.3855 9.99743C30.3855 9.90286 30.5367 9.48827 30.8068 8.84232C30.8522 8.73378 30.9249 8.55617 30.9683 8.44763C31.0118 8.33909 31.0793 8.18863 31.1183 8.11324C31.1574 8.03786 31.1893 7.93973 31.1893 7.89529C31.1893 7.85077 31.2582 7.66384 31.3424 7.47976C31.4266 7.29575 31.5581 6.97645 31.6346 6.77018C31.7112 6.56399 31.8141 6.39553 31.8634 6.39593C31.9127 6.39632 32.1821 6.9736 32.4622 7.67868Z" fill="#111111"/>
</svg>
