<svg width="52" height="18" viewBox="0 0 52 18" fill="none" xmlns="http://www.w3.org/2000/svg">
<path opacity="0.75" fill-rule="evenodd" clip-rule="evenodd" d="M21.2379 3.95779V7.91558L23.0288 7.88844C24.7998 7.86163 24.8256 7.85875 25.3506 7.62944C26.0007 7.34553 26.5616 6.78761 26.7135 6.27391C26.8544 5.79725 26.7915 4.91024 26.5887 4.51308C26.4999 4.33939 26.2836 4.06514 26.1079 3.90368L25.7885 3.61003L25.9554 3.26171C26.1631 2.82807 26.1818 1.93963 25.9942 1.41794C25.8341 0.973125 25.3761 0.508831 24.9008 0.309689C24.4085 0.103522 23.568 0.00343185 22.3124 0.00159607L21.2379 0V3.95779ZM30.2453 0.379129C30.1502 0.587611 29.6994 1.60232 29.2434 2.63395C28.7875 3.66558 28.0748 5.27293 27.6597 6.20575L26.9051 7.90185H27.7615H28.6178L29.0795 6.84428L29.5412 5.78671H30.8818H32.2224L32.6833 6.84428L33.144 7.90185H33.9843C34.6227 7.90185 34.8145 7.87791 34.7826 7.80208C34.4733 7.06705 31.4818 0.241924 31.4241 0.139679C31.3637 0.032645 31.237 0 30.8817 0H30.4181L30.2453 0.379129ZM35.3965 3.95093V7.90185H36.155H36.9135V5.30119C36.9135 3.87079 36.9443 2.71241 36.9821 2.7271C37.0198 2.7417 38.205 3.91126 39.6158 5.32609L42.1808 7.8985L42.7076 7.90018L43.2343 7.90185V3.95093V0H42.4758H41.7173V2.59404C41.7173 4.02077 41.6887 5.18809 41.6539 5.18809C41.619 5.18809 40.4193 4.02077 38.988 2.59404L36.3855 0H35.891H35.3965V3.95093ZM44.5827 3.95093V7.90185H45.3392H46.0958L46.1188 6.53579L46.1419 5.16973L47.632 6.53811L49.1222 7.90656L50.2133 7.88429L51.3044 7.86194L49.1223 5.86972C47.9221 4.77408 46.9502 3.85682 46.9625 3.83144C46.9746 3.80606 47.8948 2.96096 49.0073 1.95335C50.1197 0.945828 51.0426 0.0941838 51.058 0.0607406C51.0735 0.0272974 50.5995 0.00079842 50.0045 0.00175622L48.923 0.00343206L47.5746 1.235C46.8329 1.91241 46.1977 2.46833 46.1629 2.47049C46.1281 2.47256 46.0997 1.9176 46.0997 1.23716V0H45.3412H44.5827V3.95093ZM2.86543 1.1397C2.59827 1.26797 2.52958 1.66075 2.74786 1.81192C2.86796 1.89501 4.32832 1.9156 10.1163 1.9156C17.0026 1.9156 17.3414 1.9089 17.4745 1.76962C17.6615 1.57399 17.6501 1.41268 17.4366 1.22958C17.2655 1.08295 17.0074 1.07681 10.1676 1.05805C4.57592 1.04265 3.03154 1.05989 2.86543 1.1397ZM24.2229 1.62467C24.6821 1.90961 24.6485 2.79758 24.1702 3.01468C24.0448 3.07159 23.694 3.14015 23.3907 3.16697L22.8392 3.21574V2.31548V1.41523L23.4264 1.45506C23.7606 1.47765 24.1039 1.55076 24.2229 1.62467ZM31.2586 3.62096C31.4486 4.05413 31.604 4.42224 31.604 4.43909C31.604 4.45593 31.2791 4.46974 30.882 4.46974C30.1715 4.46974 30.1609 4.46686 30.2201 4.29015C30.3238 3.98062 30.8645 2.78488 30.8895 2.80979C30.9026 2.8228 31.0687 3.18788 31.2586 3.62096ZM2.78115 3.3523C2.68845 3.4401 2.6126 3.56581 2.6126 3.63166C2.6126 3.69751 2.68845 3.82322 2.78115 3.91102C2.94625 4.06738 3.06129 4.07065 8.40667 4.06953C11.408 4.06897 13.9444 4.04798 14.043 4.02292C14.4213 3.92674 14.4703 3.37218 14.1119 3.24199C14.0373 3.21486 11.4953 3.19267 8.46296 3.19267C3.06205 3.19267 2.94625 3.19594 2.78115 3.3523ZM24.7129 4.73505C25.0743 4.87808 25.208 5.08504 25.2142 5.51118C25.224 6.18468 24.7751 6.47082 23.6192 6.52805L22.8392 6.56676V5.54638V4.52609L23.6241 4.57046C24.0558 4.59481 24.5458 4.66888 24.7129 4.73505ZM2.83214 5.77067C2.61403 5.92176 2.68263 6.31438 2.94971 6.44384C3.26642 6.59733 10.7862 6.55207 10.9853 6.39555C11.1794 6.24286 11.1651 5.85272 10.9616 5.7496C10.7014 5.61774 3.02429 5.63761 2.83214 5.77067ZM31.2134 9.97948C30.3096 10.2436 29.6719 11.0331 29.6007 11.9761C29.5642 12.4577 29.5873 12.5809 29.7851 12.9639C30.0617 13.4992 30.4488 13.7812 31.7606 14.4025C32.8223 14.9054 33.121 15.1351 33.121 15.4488C33.121 16.0705 32.4083 16.6609 31.7575 16.5782C31.3306 16.5239 30.8672 16.1194 30.5901 15.559C30.483 15.3424 30.3678 15.1652 30.3342 15.1652C30.3006 15.1652 29.9868 15.2939 29.6371 15.4512C29.0409 15.7193 29.0057 15.7493 29.0773 15.9274C29.4099 16.756 30.1106 17.5253 30.7864 17.8038C31.4781 18.089 32.3322 18.062 33.0786 17.7311C34.1381 17.2616 34.6661 16.5177 34.6736 15.4838C34.6773 14.9705 34.6448 14.8311 34.4474 14.512C34.1322 14.0026 33.8123 13.7739 32.5701 13.1698C31.6111 12.7034 31.0983 12.3389 31.0983 12.1234C31.0983 11.8877 31.3703 11.4883 31.6111 11.3704C32.0312 11.1647 32.4226 11.3118 32.9394 11.8697L33.3586 12.3223L33.8247 11.9818C34.5273 11.4685 34.5293 11.4642 34.2559 11.0906C33.9584 10.684 33.5533 10.346 33.0976 10.1239C32.6957 9.92816 31.6607 9.84882 31.2134 9.97948ZM0 10.6954V11.4138H0.96919H1.93838V14.6464V17.8789H2.73901H3.53965V14.6464V11.4138H4.50884H5.47803V10.6954V9.97709H2.73901H0V10.6954ZM6.15225 13.928V17.8789H6.91074H7.66924V16.4375C7.66924 15.5287 7.69941 15.0138 7.75082 15.0439C7.79566 15.0701 8.29205 15.7188 8.85376 16.4853L9.8752 17.8789H10.7998C11.5181 17.8789 11.71 17.8567 11.6594 17.7792C11.6237 17.7243 11.0676 16.9678 10.4236 16.0981C9.77963 15.2284 9.26621 14.5072 9.28273 14.4956C9.29916 14.4839 9.44513 14.4243 9.60703 14.3631C10.0038 14.213 10.5066 13.7706 10.7304 13.3747C10.9925 12.911 10.9918 11.6829 10.7291 11.2142C10.2095 10.2874 9.33338 9.98196 7.18465 9.97868L6.15225 9.97709V13.928ZM13.5678 13.8539C12.618 15.9898 11.8279 17.7705 11.8119 17.811C11.7949 17.854 12.1435 17.8752 12.6471 17.8619L13.5113 17.839L13.9707 16.7815L14.4301 15.7239H15.7613H17.0925L17.3627 16.3425C17.5113 16.6826 17.72 17.1586 17.8263 17.4L18.0199 17.839L18.8669 17.8618L19.7139 17.8844L19.2182 16.7443C18.9456 16.1172 18.1748 14.3471 17.5053 12.8106L16.2882 10.017L15.7914 9.99377L15.2946 9.97046L13.5678 13.8539ZM20.2266 13.928V17.8789H21.026H21.8256L21.8477 15.2686L21.87 12.6582L24.4773 15.2686L27.0846 17.8789H27.6166H28.1486V13.925V9.9711L27.3691 9.99401L26.5895 10.017L26.5474 12.6013L26.5052 15.1855L23.8957 12.5813L21.286 9.97709H20.7563H20.2266V13.928ZM35.3965 13.928V17.8789H36.1534H36.9103L36.933 16.103L36.9556 14.3271L38.1987 14.305L39.4418 14.283V13.6066V12.9303H38.1776H36.9135V12.172V11.4138H38.2198H39.5261V10.6954V9.97709H37.4613H35.3965V13.928ZM40.2846 13.928V17.8789H42.6443H45.0041V17.2023V16.5256L43.4239 16.5039L41.8437 16.4821V15.4046V14.3271L43.3818 14.3053L44.9198 14.2836V13.6087V12.9339L43.3818 12.9122L41.8437 12.8904L41.8194 12.1521L41.7952 11.4138H43.3996H45.0041V10.6954V9.97709H42.6443H40.2846V13.928ZM45.8469 13.917V17.8789H46.6054H47.3639V16.4422C47.3639 15.6521 47.3923 15.0065 47.4271 15.0076C47.4619 15.0087 47.9597 15.6552 48.5336 16.4443L49.5767 17.8789H50.5027H51.4286L51.2781 17.6594C51.1954 17.5388 50.6391 16.7803 50.0421 15.974C49.4451 15.1678 48.968 14.5014 48.9819 14.4932C48.9959 14.4849 49.1674 14.4123 49.3632 14.3316C49.7879 14.1567 50.2446 13.7428 50.4555 13.3414C50.5714 13.1207 50.6083 12.8659 50.6075 12.2918C50.6062 11.4012 50.4573 11.0523 49.8777 10.5825C49.3473 10.1524 48.8835 10.0491 47.2585 9.99872L45.8469 9.95498V13.917ZM8.89699 11.5306C9.43544 11.7437 9.57922 12.4804 9.16575 12.9071C8.98329 13.0952 8.27157 13.2845 7.92207 13.2378C7.71323 13.2099 7.71113 13.2017 7.68753 12.3117L7.66368 11.4138H8.13268C8.39065 11.4138 8.73459 11.4664 8.89699 11.5306ZM48.6269 11.5536C48.7884 11.6303 48.9701 11.7829 49.0305 11.8927C49.1793 12.163 49.1039 12.6656 48.8809 12.8904C48.6899 13.0829 48.1445 13.2496 47.7058 13.2496H47.4482V12.3317V11.4138L47.8906 11.4139C48.1434 11.4139 48.459 11.4739 48.6269 11.5536ZM16.4341 14.3391C16.4341 14.4206 16.2694 14.4468 15.7599 14.4468C14.9823 14.4468 14.9828 14.4475 15.2941 13.781C15.4087 13.5355 15.5626 13.1988 15.6361 13.0327L15.7697 12.7308L16.1019 13.4811C16.2846 13.8939 16.4341 14.2799 16.4341 14.3391Z" fill="#111111"/>
</svg>
